# xmcd CD database file
#
# Track frame offsets:
#	150
#	14085
#	28210
#	40112
#	52667
#	64795
#	80482
#	95940
#	111180
#	123045
#	136470
#	151975
#	164992
#	177045
#	191005
#	205497
#	219430
#	233070
#	245197
#	258582
#	271795
#	285500
#	299517
#	312475
#
# Disc length: 4326 seconds
#
# Revision: 4
# Processed by: cddbd v1.5.2PL0 Copyright (c) Steve Scherf et al.
# Submitted via: CDex 1.51
#
DISCID=6f10e418
DTITLE=Various Artist - That's My Stuff 1929-1930
DYEAR=1996
DGENRE=Jazz
TTITLE0=For Just A Little Love From You - Helen Savage and the Dixie Syncopators
TTITLE1=It's Bad For Your Soul - Helen Savage and the Dixie Syncopators
TTITLE2=Smokehouse Blues - Omer Simeon Trio
TTITLE3=Beau Koo Jack - Omer Smeon Trio
TTITLE4=Story Book Ball - Dixie Rhythm Kings
TTITLE5=Easy Rider - Dixie Rhythm Kings
TTITLE6=The Chant - Dixie Rhythm Kings
TTITLE7=Congo Love Song - Dixie Rhythm Kings
TTITLE8=Dyin' With the Blues - Alex Hill and his Orch
TTITLE9=Tougaloo Shout - Alex Hill and his Orch
TTITLE10=St James' Infirmary - Alax Hill and his Orch
TTITLE11=Southbound - Alex Hill and his Orch
TTITLE12=Dyin' With The Blues -76 - Alex Hill and his Orch
TTITLE13=Don't Give It Away - Harry Dial's Blusicians
TTITLE14=Funny Fumble - Harry Dial's Blusicians
TTITLE15=I LIke What I Like Like I LIke It - Harry Dial's Blusicians
TTITLE16=It Must be Love- Harry Dial's Blusicians
TTITLE17=When My Baby Starts To Starts To Shake That Thing - Harry Dial's Blusicians
TTITLE18=Poison - Harry Dial's Blusicians
TTITLE19=Wake Up Sinners - Lloyd Smith's Gut Bucketeers
TTITLE20=Rub Me Some More - Lloyd Smith's Gut Bucketeers
TTITLE21=I'm Going A way To Wear You Off My Mind - Lloyd Smith's Gut Bucketeers
TTITLE22=That's My Stuff -47 - Lloyd Smith's Gut Bucketeers
TTITLE23=That's My Stuff - 28 -Lloyd Smith's Gut Bucketeers
EXTD=YEAR: 1996
EXTT0=
EXTT1=
EXTT2=
EXTT3=
EXTT4=
EXTT5=
EXTT6=
EXTT7=
EXTT8=
EXTT9=
EXTT10=
EXTT11=
EXTT12=
EXTT13=
EXTT14=
EXTT15=
EXTT16=
EXTT17=
EXTT18=
EXTT19=
EXTT20=
EXTT21=
EXTT22=
EXTT23=
PLAYORDER=
